<?xml version="1.0" encoding="utf-8"?>
<!-- Generator: Adobe Illustrator 19.0.0, SVG Export Plug-In . SVG Version: 6.00 Build 0)  -->
<svg version="1.1" id="Layer_1" xmlns="http://www.w3.org/2000/svg" xmlns:xlink="http://www.w3.org/1999/xlink" x="0px" y="0px"
	 width="1400px" height="980px" viewBox="0 0 1400 980" enable-background="new 0 0 1400 980" xml:space="preserve">
<path fill="#D85335" d="M900.521,757.828c0.091-0.068,0.201-0.117,0.31-0.169c3.859-2.07,9.235-3.61,9.12-4.133
	c-0.251-1.158-10.52-2.372-15.872-6.666c-6.716-5.392-10.403-11.357-11.118-10.771c-0.226,0.192,1.408,2.416,0.57,9.443
	c-0.235,1.781-0.568,3.796-1.182,6.248c-0.205,0.844-0.231,1.62-0.213,2.372c-0.161-0.049-0.318-0.093-0.318-0.093
	s-0.479-0.205-1.149-0.479c-1.24-0.494-3.477-1.274-6.216-1.781c-4.796-0.876-11.168-0.912-16.628,3.016
	c-10.288,7.378-22.357,23.648-28.421,30.097c-6.063,6.444-29.573,22.329-37.888,25.727c-9.685,3.936-35.488,11.916-48.683,10.738
	c-13.197-1.178-35.842-5.487-39.322-6.98c-5.103-2.183-23.279-8.768-28.213-12.165c-5.325-3.646-25.049-3.502-34.852,6.026
	c-0.74-1.082-3.225-2.915-5.458-6.364c-2.414-3.719-4.408-9.279-4.917-9.11c-0.637,0.181-1.087,3.434-2.008,7.24
	c-0.684,2.786-1.637,5.854-3.122,8.282c-0.147,0.245-0.273,0.527-0.436,0.769c-0.744,1.057-1.496,2.03-2.248,2.959
	c-4.239,5.238-8.277,8.294-7.737,8.877c0.148,0.137,1.166-0.628,3.933-1.037c2.398-0.362,6.057-0.442,11.773,0.57
	c1.242,0.229,2.355,0.112,3.381-0.148c-2.522,7.048-3.699,16.335,3.208,23.451c12.773,13.175,34.271,22.421,46.03,26.61
	c10.078,3.574,35.838,12.286,67.542,9.942c26.211-1.945,47.813-5.451,79.813-22.39c31.998-16.922,57.463-48.075,57.463-48.075
	s5.56-5.52,9.566-13.36c3.566-6.976,5.898-15.771,1.87-24.227c-1.177-2.493-2.41-4.551-3.665-6.417
	c-0.669-1.005-1.326-1.974-1.984-2.809c0.011-0.004,0.021-0.013,0.026-0.013C894.545,762.648,896.634,759.979,900.521,757.828z"/>
<rect fill="#DCEDC8" width="1400" height="980"/>
<path opacity="0.2" fill="#8C877C" d="M242,914.891c-3-20.891-58.947-125.559-58.947-125.559c-3.383-6.986-6.585-13.78-9.386-19.946
	c-11.945-26.425-37.893-102.032-43.336-119.419c-5.385-17.416-2.857-16.422-1.995-26.597c0.819-10.157,8.976-20.86,5.217-39.768
	c-3.701-18.935-22.737-57.397-39.979-95.458c-17.269-38.023-14.972-30.408-13.016-24.913c1.918,5.544,36.407,103.143,37.444,108.76
	c1.03,5.672-6.554,8.242-8.514,4.374c-1.992-3.883-3.375-7.104-12.107-27.661c-8.715-20.621-33.396-80.903-34.339-80.139
	c-0.994,0.845,36.734,107.353,38.413,112.539c1.465,4.65-1.6,5.446-2.349,5.831l-0.126,0.039c-0.759,0.436-3.403,2.506-5.133-2.012
	C91.966,579.891,55.526,472.72,54.34,472.99c-1.143,0.237,17.161,63.825,23.23,85.796c6.073,21.934,6.939,25.417,7.862,29.788
	c0.911,4.456-5.908,9.197-8.508,4.345c-2.63-4.871-36.062-102.977-37.981-108.519c-1.916-5.505-4.766-12.821,5.568,28.728
	c10.392,41.585,19.809,84.889,28.298,101.401c8.542,16.499,20.583,16.869,27.176,23.233c6.643,6.438,7.804,3.499,14.279,20.381
	c6.507,16.842,32.901,92.209,40.123,121.092c3.898,15.622,8.268,35.488,11.908,53.447c0,0,19.31,93.934,26.705,102.318
	C212,956.544,245,935.781,242,914.891z"/>
<polygon opacity="0.2" fill="#8C877C" points="218.114,385.127 457.317,940.047 72.964,790.135 "/>
<path opacity="0.2" fill="#8C877C" d="M333.376,201.331c0,78.327-65.366,141.818-146,141.818
	c-80.633,0-146.003-63.491-146.003-141.818c0-78.323,65.369-141.817,146.003-141.817
	C268.011,59.514,333.376,123.008,333.376,201.331z"/>
<polygon fill="#6D893B" points="240.114,385.127 479.317,940.047 94.964,790.135 "/>
<path fill="#E8E1D4" d="M252,907.891c-3-20.891-58.947-125.559-58.947-125.559c-3.383-6.986-6.585-13.78-9.386-19.946
	c-11.945-26.425-37.893-102.032-43.336-119.419c-5.385-17.416-2.857-16.422-1.995-26.597c0.819-10.157,8.976-20.86,5.217-39.768
	c-3.701-18.935-22.737-57.397-39.979-95.458c-17.268-38.023-14.972-30.408-13.016-24.913c1.918,5.544,36.407,103.143,37.444,108.76
	c1.03,5.672-6.554,8.242-8.514,4.374c-1.992-3.883-3.375-7.104-12.107-27.661c-8.715-20.621-33.396-80.903-34.339-80.139
	c-0.994,0.845,36.734,107.353,38.413,112.539c1.465,4.65-1.6,5.446-2.349,5.831l-0.125,0.039c-0.759,0.436-3.403,2.506-5.133-2.012
	c-1.883-5.072-38.323-112.243-39.509-111.973c-1.143,0.237,17.161,63.825,23.23,85.796c6.073,21.934,6.939,25.417,7.862,29.788
	c0.911,4.456-5.908,9.197-8.508,4.345c-2.63-4.871-36.062-102.977-37.981-108.519c-1.916-5.505-4.766-12.821,5.568,28.728
	c10.392,41.585,19.809,84.889,28.298,101.401c8.542,16.499,20.583,16.869,27.176,23.233c6.643,6.438,7.804,3.499,14.279,20.381
	c6.507,16.842,32.901,92.209,40.123,121.092c3.898,15.622,8.268,35.488,11.908,53.447c0,0,19.31,93.934,26.705,102.318
	C222,949.544,255,928.781,252,907.891z"/>
<path opacity="0.2" fill="#8C877C" d="M1137.802,513.293c0,234.878-200.086,425.278-446.891,425.278
	c-246.798,0-446.879-190.4-446.879-425.278c0-234.875,200.081-425.278,446.879-425.278
	C937.716,88.015,1137.802,278.418,1137.802,513.293z"/>
<path fill="#FFF4DC" d="M1116.195,533.266c0,234.878-190.403,425.278-425.279,425.278c-234.871,0-425.278-190.4-425.278-425.278
	c0-234.877,190.407-425.277,425.278-425.277C925.792,107.989,1116.195,298.389,1116.195,533.266z"/>
<path opacity="0.2" fill="#8C877C" d="M984.882,533.266c0,162.354-131.612,293.965-293.966,293.965
	c-162.35,0-293.964-131.61-293.964-293.965c0-162.354,131.615-293.963,293.964-293.963
	C853.269,239.302,984.882,370.912,984.882,533.266z"/>
<g>
	<path fill="#EACB9D" d="M403.31,378.163c-90.256,89.13-86.072,119.369-66.254,142.546c8.938,10.452,19.122,15.226,54.366,19.955
		c0,0,80.15,98.916,102.239,119.167c4.865,4.458,10.077,7.082,15.48,8.28c0.115-124.937,9.467-247.885,9.495-372.058
		C495.364,300.262,460.919,321.962,403.31,378.163z"/>
	<path fill="#D6B890" d="M690.323,466.853C670.578,444.297,572.54,362.929,572.54,362.929c-2.892-36.471-7.256-46.951-17.588-56.038
		c-9.391-8.257-20.163-13.76-36.317-10.838c-0.027,124.173-9.38,247.122-9.495,372.058c33.846,7.502,75.274-41.284,87.022-50.278
		c3.624-2.773,11.955-10.587,22.205-20.516c10.884-10.805,19.462-19.587,22.549-23.396
		C652.506,559.602,721.905,502.924,690.323,466.853z"/>
</g>
<g>
	<g>
		
			<rect x="950.861" y="253.409" transform="matrix(-0.8693 0.4943 -0.4943 -0.8693 2009.0582 377.8746)" fill="#3F0C04" width="7.421" height="402.276"/>
	</g>
	<g>
		<path fill="#D85B1D" d="M979.256,578.014c-2.67-4.695,10.568-17.262,29.564-28.062c18.994-10.799,36.563-15.749,39.232-11.054
			c2.667,4.691-10.572,17.256-29.566,28.056C999.491,577.754,981.922,582.704,979.256,578.014z"/>
	</g>
	<g>
		<path fill="#7D9F3D" d="M901.665,441.547c-3.351-5.893,9.335-19.434,28.329-30.233c18.994-10.8,37.118-14.774,40.469-8.882
			c3.353,5.898-9.335,19.434-28.329,30.232C923.139,443.464,905.019,447.445,901.665,441.547z"/>
	</g>
	<g>
		<path fill="#EACE57" d="M958.476,541.465c-5.064-8.904,6.236-24.882,25.231-35.682c18.994-10.799,38.503-12.338,43.565-3.434
			c5.063,8.904-6.236,24.882-25.23,35.682C983.047,548.831,963.538,550.37,958.476,541.465z"/>
	</g>
	<g>
		<path fill="#634253" d="M929.578,498.151c-5.063-8.904,6.238-24.877,25.232-35.677c19-10.803,38.5-12.343,43.564-3.439
			c5.065,8.909-6.231,24.879-25.231,35.682C954.148,505.518,934.643,507.06,929.578,498.151z"/>
	</g>
	<g>
		<path fill="#AB483A" d="M870.162,386.139c-8.268-14.542,0.432-35.092,19.427-45.892c18.994-10.8,41.103-7.766,49.371,6.776
			c8.268,14.542-0.433,35.092-19.427,45.891C900.539,403.714,878.431,400.682,870.162,386.139z"/>
	</g>
	<g>
		<path fill="#3F0C04" d="M812.214,216.752c10.366-5.894,23.095-11.138,35.736-7.876c9.22,2.376,17.026,9.083,23.188,19.921
			c6.812,11.98,8.484,23.078,4.97,32.994c-5.598,15.783-22.278,22.458-22.997,22.744l-2.326-5.944
			c0.136-0.064,14.733-5.94,19.322-18.971c2.851-8.084,1.329-17.391-4.516-27.669c-5.277-9.284-11.748-14.965-19.24-16.898
			c-12.016-3.095-24.979,3.451-34.85,9.537l-3.326-5.448C809.472,218.347,810.821,217.544,812.214,216.752z"/>
	</g>
</g>
<path fill="#EDE9D6" d="M348.822,199.096c0,78.327-65.365,141.819-146,141.819c-80.633,0-146.003-63.492-146.003-141.819
	c0-78.323,65.369-141.816,146.003-141.816C283.457,57.279,348.822,120.772,348.822,199.096z"/>
<path opacity="0.2" fill="#8C877C" d="M315.973,183.325c0,64.754-50.659,117.252-113.149,117.252
	c-62.492,0-113.148-52.499-113.148-117.252c0-64.759,50.656-117.253,113.148-117.253
	C265.314,66.072,315.973,118.566,315.973,183.325z"/>
<circle fill="#FCF9EB" cx="202.824" cy="180.316" r="104.153"/>
<ellipse fill="#47331B" cx="202.823" cy="180.316" rx="90.009" ry="89.08"/>
<path fill="#47331B" d="M289.384,183.173c0,49.196-41.361,90.343-91.072,90.343c-49.71,0-88.944-41.147-88.944-90.343
	c0-49.198,40.298-89.083,90.009-89.083C249.086,94.09,289.384,133.975,289.384,183.173z"/>
<path fill="#FCF9EB" d="M117.264,120.911l-11.053,20.441c0,0-26.683-21.986-36.836-23.339c-6.973-0.932-6.043,0.932-4.647,5.115
	c1.393,4.185-14.647-17.207,7.904-23.715C82.115,96.678,117.264,120.911,117.264,120.911z"/>
<path fill="#DDDACA" d="M101.48,156.206l4.731-14.855c0,0-26.772-23.745-39.392-23.808c-4.184-0.018-3.974,4.49-2.115,6.118
	L101.48,156.206z"/>
<path opacity="0.4" fill="#7C776D" d="M63.848,122.79l35.599,44.752c0.193-4.099,2.033-11.336,2.033-11.336L63.848,122.79z"/>
<g>
	<g>
		<path fill="#D1A63D" d="M596.101,536.731c-21.379-149.848,39.309-200.176,41.9-202.252l12.962,16.246l-6.485-8.118l6.547,8.066
			c-0.537,0.444-53.87,46.269-34.35,183.124L596.101,536.731z"/>
	</g>
</g>
<g>
	<g>
		<path fill="#D1A63D" d="M633.281,534.097l-20.129-5.163c42.076-163.977,43.347-257.558,43.347-258.487l20.779,0.155
			C677.247,274.475,676.069,367.343,633.281,534.097z"/>
	</g>
</g>
<g>
	<g>
		<path fill="#D1A63D" d="M784.968,467.73l-20.615-2.603c11.412-90.804,76.871-124.576,79.648-125.97l9.307,18.579l-4.658-9.284
			l4.69,9.274C850.952,358.935,794.954,388.319,784.968,467.73z"/>
	</g>
</g>
<g>
	<g>
		<path fill="#D1A63D" d="M689.425,487.198c-15.606-122.427-0.59-214.531,0.061-218.394l20.49,3.429
			c-0.154,0.919-15.129,93.137,0.063,212.342L689.425,487.198z"/>
	</g>
</g>
<g>
	<g>
		<path fill="#D1A63D" d="M765.706,504.229c-40.031-134.429-10.607-161.385-4.307-165.423l11.217,17.495
			c0,0,0.277-0.123,0.701-0.506c-0.238,0.217-23.238,23.135,12.301,142.505L765.706,504.229z"/>
	</g>
</g>
<g>
	<g>
		<path fill="#D1A63D" d="M745.628,505.685c-46.98-129.884-19.158-259.644-17.949-265.118l20.295,4.482
			c-0.279,1.281-27.68,129.522,17.195,253.582L745.628,505.685z"/>
	</g>
</g>
<g>
	<g>
		<path fill="#EF4E29" d="M557.955,556.283c0,0,5.642-8.519,5.458-17.14c-0.343-15.946-13.781-39.831-50.696-42.327
			c-56.835-3.839-80.057,59.982-82.978,75.903c-2.937,15.904-12.317,61.394,29.884,98.62c42.22,37.222,84.867,40.008,132.445,11.829
			c49.114-29.091,38.31-77.173,34.253-89.009c-4.048-11.831-26.79-41.793-58.958-29.65
			C548.892,571.49,557.3,559.424,557.955,556.283z"/>
	</g>
	<g>
		<g>
			<path fill="#D72E2A" d="M526.621,570.685c0,0,21.754-29.15,3.313-45.972c-13.997-12.775-35.735-8.586-55.262,10.961
				c-19.515,19.553-34.625,62.815-21.203,84.814c8.761,14.377,25.062,23.412,42.67-3.62c6.598-10.141-7.922-28.473-0.202-38.784
				C499.544,573.276,511.624,561.918,526.621,570.685z"/>
		</g>
		<g>
			<g>
				<path fill="#E0AA48" d="M519.434,542.527c0,0-1.728-13.031,3.86-11.472C528.878,532.613,525.445,537.182,519.434,542.527z"/>
			</g>
			<g>
				<path fill="#E0AA48" d="M504.068,540.164c0,0-9.689-8.879-4.402-11.267C504.954,526.505,505.253,532.21,504.068,540.164z"/>
			</g>
			<g>
				<path fill="#E0AA48" d="M484.453,555.394c0,0-13.119,0.749-11.144-4.7C475.277,545.249,479.566,548.986,484.453,555.394z"/>
			</g>
			<g>
				<path fill="#E0AA48" d="M477.296,580.32c0,0-12.747,3.182-11.824-2.544C466.402,572.054,471.314,574.945,477.296,580.32z"/>
			</g>
			<g>
				<path fill="#E0AA48" d="M474.626,601.22c0,0-10.577,7.793-11.908,2.148C461.398,597.722,467.047,598.525,474.626,601.22z"/>
			</g>
			<g>
				<path fill="#E0AA48" d="M475.207,618.213c0,0-7.713,10.643-10.689,5.674C461.541,618.898,467.17,617.962,475.207,618.213z"/>
			</g>
			<g>
				<path fill="#E0AA48" d="M473.334,589.025c0,0-8.467,5.048-9.046,0.746C463.702,585.458,467.866,586.466,473.334,589.025z"/>
			</g>
			<g>
				<path fill="#E0AA48" d="M479.317,566.487c0,0-9.848,0.233-8.228-3.801C472.708,558.641,475.825,561.575,479.317,566.487z"/>
			</g>
			<g>
				<path fill="#E0AA48" d="M492.035,543.472c0,0-9.661-1.969-7.177-5.548C487.338,534.35,489.724,537.898,492.035,543.472z"/>
			</g>
		</g>
	</g>
	<g>
		<g>
			<path fill="#D72E2A" d="M557.318,598.894c0,0,45.03-21.034,50.283,17.583c5.276,38.604-48.641,57.042-66.526,56.667
				c-11.763-0.248-94.129-5.243-33.835-44.088c9.42-6.082,48.307,13.505,55.389-6.089
				C569.72,603.373,557.318,598.894,557.318,598.894z"/>
		</g>
		<g>
			<g>
				<path fill="#E0AA48" d="M584.131,608.379c0,0,12.966,2.157,11.599-3.482C594.352,599.268,589.684,602.544,584.131,608.379z"/>
			</g>
			<g>
				<path fill="#E0AA48" d="M585.982,623.808c0,0,8.557,9.973,11.128,4.769C599.659,623.379,593.972,622.892,585.982,623.808z"/>
			</g>
			<g>
				<path fill="#E0AA48" d="M570.111,642.912c0,0-1.186,13.091,4.327,11.298C579.958,652.421,576.346,648.011,570.111,642.912z"/>
			</g>
			<g>
				<path fill="#E0AA48" d="M544.966,649.229c0,0-3.613,12.635,2.154,11.9C552.865,660.394,550.136,655.384,544.966,649.229z"/>
			</g>
			<g>
				<path fill="#E0AA48" d="M523.995,651.21c0,0-8.151,10.309-2.543,11.823C527.044,664.542,526.428,658.868,523.995,651.21z"/>
			</g>
			<g>
				<path fill="#E0AA48" d="M507.013,650.066c0,0-10.895,7.348-6.017,10.498C505.867,663.7,507.014,658.106,507.013,650.066z"/>
			</g>
			<g>
				<path fill="#E0AA48" d="M536.131,652.911c0,0-5.323,8.278-1.046,9.012C539.384,662.638,538.512,658.457,536.131,652.911z"/>
			</g>
			<g>
				<path fill="#E0AA48" d="M558.851,647.674c0,0-0.555,9.83,3.528,8.353C566.472,654.539,563.654,651.324,558.851,647.674z"/>
			</g>
			<g>
				<path fill="#E0AA48" d="M582.276,635.731c0,0,1.654,9.71,5.312,7.361C591.24,640.727,587.773,638.218,582.276,635.731z"/>
			</g>
		</g>
	</g>
</g>
<g>
	<g>
		<path fill="#D1A63D" d="M598.301,486.558l-20.749-1.342c4.059-62.619-17.619-142.814-17.836-143.62l20.036-5.484
			C580.692,339.53,602.577,420.407,598.301,486.558z"/>
	</g>
</g>
<g>
	<g>
		<rect x="670.297" y="362.292" fill="#D1A63D" width="20.768" height="139.861"/>
	</g>
</g>
<g>
	<g>
		<g>
			<path fill="#F4BF3D" d="M624.936,499.179l-20.119-5.236c26.172-100.512-20.769-177.31-21.254-178.074l17.598-11.051
				C603.31,308.226,653.441,389.651,624.936,499.179z"/>
		</g>
	</g>
	<g>
		<g>
			<path fill="#F4BF3D" d="M658.461,501.224l-18.569-9.306c48.603-96.999-25.159-242.892-25.913-244.358l18.477-9.501
				C635.719,244.41,711.825,394.753,658.461,501.224z"/>
		</g>
	</g>
	<g>
		<g>
			<path fill="#F4BF3D" d="M578.43,467.751l-20.614-2.634c9.564-74.712-28.939-108.423-29.32-108.753l13.457-15.833
				C543.894,342.185,589.409,381.987,578.43,467.751z"/>
		</g>
	</g>
	<g>
		<g>
			<path fill="#F4BF3D" d="M788.046,477.583c-1.736-103.383,21.873-190.57,22.887-194.227l20.035,5.505
				c-0.236,0.867-23.836,88.097-22.143,188.37L788.046,477.583z"/>
		</g>
	</g>
	<g>
		<g>
			<path fill="#F4BF3D" d="M756.751,512.026c-15.565-88.438,18.074-205.36,19.52-210.286l19.943,5.814
				c-0.33,1.167-33.721,117.253-18.992,200.878L756.751,512.026z"/>
		</g>
	</g>
	<g>
		<g>
			<path fill="#F4BF3D" d="M704.977,522.354c-2.221-7.891-54.066-194.03-18.322-274.454l18.994,8.448
				c-32.728,73.639,18.807,258.508,19.334,260.367L704.977,522.354z"/>
		</g>
	</g>
	<g>
		<g>
			<path fill="#F4BF3D" d="M741.095,498.673c-2.004-3.491-48.707-86.321-25.23-157.047c10.844-32.667,34.764-57.227,71.096-73.008
				l8.283,19.065c-30.684,13.323-50.75,33.669-59.654,60.48c-20.582,62.018,23.094,139.416,23.539,140.19L741.095,498.673z"/>
		</g>
	</g>
</g>
<path fill="#FFFFFF" d="M615.785,481.813c48.178-52.921,122.273-1.285,171.724-13.335c75.9-18.495,84.155,55.153,96.031,97.089
	c18.664,65.9-31.5,136.038-112.993,166.422c-81.495,30.377-210.766-42.24-209.365-128.803
	C562.208,539.608,595.071,504.572,615.785,481.813z"/>
<path fill="#F9BB21" d="M794.894,594.464c0,39.235-31.809,71.04-71.045,71.04c-39.233,0-71.035-31.805-71.035-71.04
	c0-39.242,31.802-71.046,71.035-71.046C763.086,523.418,794.894,555.222,794.894,594.464z"/>
<path fill="#FFF7E3" d="M765.329,563.535c0,5.581-4.527,10.103-10.104,10.103c-5.575,0-10.101-4.522-10.101-10.103
	c0-5.574,4.525-10.098,10.101-10.098C760.802,553.438,765.329,557.961,765.329,563.535z"/>
<path opacity="0.2" fill="#8C877C" d="M699.058,647.365c-38.595-18.435-42.685-55.536-40.438-80.449
	c-3.727,8.624-5.805,18.126-5.805,28.12c0,39.233,31.802,71.039,71.035,71.039c21.945,0,41.547-9.955,54.578-25.582
	C758.371,654.472,731.808,663.006,699.058,647.365z"/>
<path opacity="0.1" fill="#8C877C" d="M838.036,504.799c6.401,10.689,5.253,23.16-2.584,27.859
	c-7.831,4.692-19.376-0.175-25.785-10.87c-6.404-10.688-5.252-23.167,2.584-27.859C820.083,489.237,831.625,494.098,838.036,504.799
	z"/>
<path opacity="0.1" fill="#8C877C" d="M835.478,559.239c3.243,5.405,2.661,11.72-1.307,14.102
	c-3.963,2.376-9.806-0.091-13.052-5.503c-3.24-5.413-2.657-11.727,1.306-14.102C826.394,551.361,832.233,553.82,835.478,559.239z"/>
<g>
	<g>
		<path fill="#BA4D42" d="M631.556,752.574c18,4,35,6,52,7c90.302,0.821,174.535-42.84,246.62-96.675
			c-0.326-3.942-1.349-7.92-3.313-11.827c-1.801-3.639-3.688-6.652-5.604-9.373c-1.011-1.457-2.021-2.86-3.012-4.086
			c0.016,0,0.03-0.018,0.052-0.018c1.557-0.576,4.559-4.582,10.236-7.882c0.138-0.095,0.296-0.179,0.457-0.243
			c5.65-3.174,13.553-5.642,13.358-6.396c-0.418-1.706-15.626-3.191-23.657-9.38c-10.108-7.752-15.723-16.477-16.777-15.573
			c-0.33,0.296,2.164,3.518,1.131,13.944c-0.281,2.635-0.714,5.618-1.559,9.279c-0.267,1.243-0.291,2.389-0.249,3.495
			c-0.229-0.065-0.458-0.123-0.458-0.123s-0.714-0.293-1.718-0.674c-5.076-1.907-21.227-6.841-33.728,2.51
			c-14.979,11.228-32.325,35.652-41.093,45.355c-8.783,9.713-43.048,33.904-55.228,39.184
			c-14.197,6.116-52.098,18.689-71.632,17.345c-19.559-1.331-53.155-7.015-58.339-9.117c-7.614-3.074-34.689-12.251-42.072-17.121
			c-7.986-5.236-37.146-4.428-51.355,9.968c-1.124-1.592-4.847-4.22-8.251-9.249c-3.677-5.432-6.797-13.582-7.547-13.326
			c-0.932,0.292-1.503,5.124-2.742,10.772c-0.208,0.929-0.439,1.878-0.691,2.832c10.924,9.822,22.646,15.908,35.17,20.381
			C585.556,732.574,606.556,746.574,631.556,752.574z"/>
		<path fill="#AB483A" d="M683.556,759.574c-17-1-34-3-52-7c-25-6-46-20-70-29c-12.524-4.473-24.246-10.559-35.17-20.381
			c-0.873,3.305-2.035,6.675-3.682,9.502c-0.213,0.368-0.379,0.79-0.623,1.152c-7.044,10.6-15.36,16.81-14.391,17.791
			c0.215,0.203,1.696-0.95,5.784-1.65c3.523-0.607,8.936-0.828,17.423,0.491c1.843,0.299,3.471,0.102,4.988-0.313
			c-3.521,10.484-4.979,24.252,5.451,34.56c19.277,19.081,51.336,32.099,68.839,37.942c15.026,4.986,53.364,17.064,100.151,12.649
			c38.69-3.681,70.506-9.529,117.299-35.523c46.786-25.988,83.493-72.811,83.493-72.811s8.047-8.326,13.73-20.032
			c3.458-7.133,6.034-15.51,5.327-24.051C858.091,716.734,773.857,760.396,683.556,759.574z"/>
	</g>
</g>
<g opacity="0.2">
	<path fill="#8C877C" d="M1286.045,340.788l0.03-0.113c-0.813-0.276-1.632-0.536-2.456-0.782c-0.186-0.065-0.365-0.14-0.552-0.204
		l-0.012,0.043c-0.359-0.103-0.714-0.213-1.079-0.307c-1.762-0.456-3.52-0.806-5.295-1.103c-13.795-2.297-27.679,0.423-40.084,7.019
		c0.054,0.004,0.106,0.01,0.16,0.014c-18.723,10.168-33.973,29.213-40.287,53.427l-64.205,245.821l18.41,26.586l24.791,35.809
		l7.733,12.552l-0.018,0.066l48.503,70.036l2.455,3.53l92.081-352.537l1.834-7.012
		C1338.438,393.877,1321.001,354.462,1286.045,340.788z M1276.574,353.561l0.002-0.009c0.026,0.012,0.052,0.025,0.078,0.038
		C1276.627,353.58,1276.603,353.572,1276.574,353.561z"/>
	<polygon fill="#8C877C" points="1177.678,730.212 1169.383,718.242 1142.9,679.965 1125.979,655.532 1109.739,717.701 
		1127.853,743.036 1152.98,778.197 1161.443,790.029 1208.806,856.278 1213.279,862.548 1228.62,803.788 1223.451,796.317 	"/>
	<polygon fill="#8C877C" points="1124.9,750.965 1107.979,726.532 1091.739,788.701 1109.853,814.036 1134.98,849.197 
		1151.383,789.242 	"/>
	<polygon fill="#8C877C" points="1159.678,801.212 1159.604,801.481 1151.668,790.029 1135.266,849.984 1143.729,861.816 
		1143.805,861.535 1190.806,927.278 1195.279,933.548 1210.62,874.788 1205.451,867.317 	"/>
</g>
<g>
	<path fill="#6D893B" d="M787.063,802.985c7.487-0.687,11.185-1.319,12.479-0.884c1.291,0.441,15.336,13.297,19.465,16.073
		c4.134,2.781,7.006,3.312,7.762,2.513c0.762-0.8-0.246-4.195,0.209-4.829c0.451-0.632,4.68,3.354,5.729,2.96
		c1.052-0.394,0.118-3.366,0.51-3.646c0.398-0.293,2.747,1.771,4.088,0.435c1.343-1.331,2.48-0.518,3.587-2.589
		c1.104-2.083-2.36-4.184-3.405-5.128c-1.047-0.937-0.598-2.321-1.185-3.146c-1.131-1.594-9.144-2.268-11.08-2.967
		c-1.757-0.638-2.6-0.919-1.385-0.996c1.212-0.084,16.876,3.683,19.187,4.196c2.309,0.507,2.786,1.652,3.634-1.6
		c0.545-2.089,4.032,0.781,6.786-2.793c0,0,1.639-0.931-2.038-3.563c-2.782-1.994,2.28-1.044,2.28-1.044s4.988,0.524,6.094-1.553
		c1.108-2.082-1.898-1.366-1.435-1.999c0.451-0.627,4.025-0.55,5.21-1.797c1.193-1.26-1.158-1.987-0.021-2.512
		c1.144-0.52,5.044,0.178,4.745-2.336c-0.305-2.518-5.721-4.297-9.445-5.239c-3.717-0.955-1.179-1.838,0.009-2.692
		c1.197-0.859-4.03-1.558-8.659-0.465c-1.82,0.435,0.11-0.688-0.68-1.445c0,0-11.702,1.367-14.229,2.238
		c-2.537,0.859-2.125,0.006-0.996-1.289c1.128-1.302,5.666-4.166,2.677-7.466c-2.997-3.295-16.632,0.507-17.432,1.086
		c-0.79,0.578-0.999,2.734-1.768,1.409c-0.777-1.331-1.717-1.618-3.868-0.484c-2.157,1.141-4.178,4.398-4.646,7.013
		c-0.465,2.602-0.749,4.244-1.277,7.109c-0.525,2.883-5.788,11.747-7.657,12.898c-1.867,1.148-10.606,3.569-17.753,3.093
		C781.066,801.445,785.144,803.165,787.063,802.985z"/>
	<path fill="#6D893B" d="M871.512,825.301c-2.125-0.537-2.771-0.311-3.307-0.747c-0.538-0.446,0.862-2.16,1.591-2.315
		c0.74-0.155-7.751-2.137-10.193-1.725c-2.45,0.405,1.303-3.623,2.27-3.874c0.971-0.268-8.355-4.893-15.661-1.688
		c-7.308,3.205-10.79,8.965-14.813,10.719c-1.443,0.634-4.982,1.857-6.464,1.308c-1.954-1.003-4.088-2.221-6.254-3.741
		c-6.586-4.626-13.844-11.591-24.185-17.452c-6.779-3.837-56.932-17.863-86.696-11.968c-29.733,5.898-56.71,21.458-81.053,38.975
		c-0.775,0.556,1.514,1.11,2.038,0.733c23.056-16.586,48.168-31.101,76.002-37.797c28.436-6.84,80.292,7.46,87.154,10.66
		c2.868,1.336,4.376,2.314,6.107,3.58c7.028,5.115,15.298,11.656,18.048,14.766c3.868,4.375,4.963,10.11,1.68,14.951
		c-3.287,4.841-7.382,17.911-7.206,25.008c0.084,3.567,3.324,0.488,4.034-0.771c-0.602,1.517-2.768,7.671,0.281,11.424
		c1.477,1.802,2.045-2.56,2.045-2.56s0.539,7.913,3.523,9.405c2.98,1.499,5.279-6.583,5.279-6.583s1.26,3.044,2.303,1.852
		c1.06-1.195,0.146-9.09-0.34-10.69c-0.48-1.582,2.122,4.995,4.352,2.889c2.229-2.089-3.259-29.823-4.506-32.6
		c-1.239-2.786,4.93,8.136,5.825,12.438c0.892,4.297,1.089,19.714,1.927,21.278c0.836,1.574,2.298-1.75,2.737-0.801
		c0.436,0.949,2.173,7.723,5.049,6.75c2.882-0.978,3.067-6.815,3.067-6.815s1.698-0.729,2.378,0.717
		c0.682,1.438,2.241,5.084,4.97,5.782c2.732,0.699,1.72-4.011,1.72-4.011l3.804,4.393c0,0,1.455-1.808,1.769-3.509
		c0.27-1.469,3.579,3.015,7.572,1.737c0,0,2.173-3.642,0.302-7.091c-1.872-3.432,1.566-1.576,2.148-1.553
		c0.584,0.019-1.196-3.359-2.719-4.428c-1.531-1.074,1.268-1.218,2.691-1.88c1.417-0.64-3.328-5.359-4.706-5.867
		c-1.385-0.513,4.993,0.119,7.177-1.116c2.185-1.241-6.754-7.06-6.754-7.06l0.538-1.964c0,0-3.265-2.041-10.556-4.058
		c1.274-0.209,4.373-0.747,5.5-1.247c1.427-0.646-0.752-2.579-0.248-2.46c0.517,0.114,5.619,2.984,8.58,0.395
		c0.71-0.621-1.17-0.968-1.17-0.968s6.896-1.42,8.508-3.558C879.261,830.009,873.636,825.838,871.512,825.301z M846.859,837.9
		c-0.997-0.167-3.453-1.397-6.028-2.817c3.321,0.674,6.619,1.492,8.341,2.357c1.433,0.722,2.642,1.241,3.64,1.636
		C851.01,838.664,849.04,838.264,846.859,837.9z"/>
	<path fill="#6D893B" d="M806.077,825.301c-3.178-1.999-12.885-8.493-16.105-11.005c-2.948-2.298-4.324-5.881-4.324-5.881
		s-0.113-3.95-1.08-5.275c-1.452-1.987-2.9-0.716-2.9-0.716s2.715-0.335,2.748,5.604c0,0-0.537,1.605-1.533,2.901
		c-0.657,0.853-12.188,15.946-26.523,23.497c-14.343,7.544-0.402,8.408,2.62,5.664c3.028-2.752-4.24,5.377-4.719,7.185
		c-0.491,1.821,2.379,1.756,2.999,2.466c0.627,0.717-3.556,7.633-0.934,10.7c1.238,1.457,6.821-0.178,8.809-5.317
		c0,0,1.191,2.932,2.707,2.561c1.505-0.37,1.248-2.989,3.134-4.058c1.876-1.074,1.283,10.707,3.077,12.181
		c1.805,1.474,4.15-5.049,4.738-5.772c0.588-0.723,0.077,10.922,2.199,12.259c2.118,1.338,2.572-1.909,2.572-1.909
		s0.829,5.909,2.032,6.499c1.203,0.585,1.154-1.665,1.901-1.044c0.752,0.608,2.602,4.536,4.252,4.082
		c1.659-0.453,1.979-8.439,2.948-8.636c0.976-0.216,1.98,1.421,2.116,0.931c0.137-0.49,0.917-4.883,0.194-6.69
		c-0.732-1.802,1.647,0.257,2.668-0.132c1.249-0.471-1.107-12.062-1.085-14.049c0.025-1.994,0.1-2.327,1.5-1.582
		c1.398,0.74,3.229,4.452,4.941,3.444c1.709-1.015,3.002-4.984,2.279-8.177c-0.709-3.199,2.185,0.382,2.185,0.382
		s0.688-4.275-2.864-7.795c-3.549-3.509,0.064-1.546,0.423-1.247c0.365,0.293,4.731,4.082,6.076,1.564
		C814.473,835.423,809.249,827.306,806.077,825.301z"/>
</g>
<g>
	<path fill="#FFF7E3" d="M370.638,106.956c-0.552-2.23-1.34-5.338,0.645-9.071c1.602-3.013,4.459-8.765,0.883-18.135
		c-3.544-9.383-6.127-11.969-18.661-30.567c-12.538-18.581-36.607-3.478-27.616,17.05c9.032,20.545,9.224,22.588,15.217,30.632
		c6.022,8.031,10.621,8.399,15.708,8.994c3.425,0.397,5.654,2.814,6.892,3.855"/>
	<path fill="#FFF7E3" d="M363.705,109.714c1.001,1.024,2.143,2.622,4.356,6.429c4.434,7.603,23.208,41.519,29.261,54.406
		c6.039,12.878,14.326,32.145,17.564,40.574c3.247,8.438,7.646,21.084,13.031,24.282c4.838,2.858,9.518,2.157,10.252,1.768
		l0.131-0.084c0.755-0.408,3.835-3.985,3.985-9.615c0.192-6.253-8.165-16.733-13.55-23.977
		c-5.391-7.245-17.247-24.538-24.915-36.538c-7.647-11.996-26.267-45.996-30.345-53.799c-1.612-3.113-2.412-4.899-2.837-6.204"/>
</g>
<g>
	<g opacity="0.2">
		<g>
			<g>
				<g>
					<g>
						<path fill="#8C877C" d="M1057.599,183.806c0,79.543,64.479,144.01,144.019,144.01c79.531,0,144.022-64.467,144.022-144.01
							c0-79.54-64.491-144.015-144.022-144.015C1122.077,39.791,1057.599,104.266,1057.599,183.806z M1159.392,183.806
							c0-23.332,18.902-42.242,42.226-42.242c23.331,0,42.237,18.91,42.237,42.242c0,23.323-18.906,42.233-42.237,42.233
							C1178.294,226.039,1159.392,207.129,1159.392,183.806z"/>
					</g>
				</g>
			</g>
		</g>
	</g>
	<g>
		<g>
			<g>
				<g>
					<g>
						<path fill="#DDC697" d="M1070.189,179.08c0,76.38,61.899,138.274,138.251,138.274c76.358,0,138.271-61.894,138.271-138.274
							c0-76.339-61.912-138.242-138.271-138.242C1132.089,40.838,1070.189,102.741,1070.189,179.08z M1167.9,179.08
							c0-22.372,18.151-40.527,40.54-40.527c22.405,0,40.556,18.155,40.556,40.527c0,22.417-18.15,40.564-40.556,40.564
							C1186.052,219.644,1167.9,201.497,1167.9,179.08z"/>
					</g>
				</g>
			</g>
		</g>
	</g>
	<g>
		<g>
			<g>
				<g>
					<g>
						<path fill="#5B4736" d="M1088.234,225.629c6.442,16.072,16.118,30.509,28.227,42.527
							c13.023,12.922,26.744,11.786,44.397,18.086c13.354,4.772,29.868,18.62,44.862,18.62c19.658,0,38.27-4.471,54.869-12.423
							c18.865-9.06,35.127-22.642,47.354-39.323c7.605-10.393,10.732-28.888,14.934-41.319c6.92-20.478,8.7-8.654,9.256-32.655
							c0.611-26.398-13.346-25.463-19.482-37.633c-5.095-10.108-2.494-20.148-7.691-28.737
							c-10.574-17.436-23.262-25.879-38.58-36.089c-16.746-11.146-36.637-23.278-60.658-23.278
							c-20.392,0-39.656,4.809-56.705,13.342c-10.705,5.348-17.139,18.016-25.818,26.038c-7.283,6.695-17.154,8.393-22.674,16.624
							c-13.398,19.947-13.767,43.862-13.767,69.647C1086.757,195.483,1082.486,211.242,1088.234,225.629z M1168.652,179.142
							c0-15.82,12.435-30.301,26.486-35.551c5.812-1.064,19.08-7.895,36.027,3.06c12.494,8.076,20.231,22.373,17.554,37.153
							c-2.572,14.117-5.48,19.86-18.971,29.795c-11.224,8.267-33.246,1.922-30.144,1.905
							C1182.051,212.602,1168.652,197.427,1168.652,179.142z"/>
					</g>
				</g>
			</g>
		</g>
	</g>
	<g>
		<g>
			<g>
				<g>
					<g>
						<path fill="#66E836" d="M1253.258,106.105c0.637,1.396,2.291,1.996,3.679,1.352l0,0c1.384-0.646,1.987-2.291,1.343-3.675
							l-5.229-11.288c-0.646-1.396-2.294-1.992-3.694-1.355l0,0c-1.381,0.649-1.98,2.295-1.331,3.678L1253.258,106.105z"/>
					</g>
				</g>
			</g>
		</g>
	</g>
	<g>
		<g>
			<g>
				<g>
					<g>
						<path fill="#66E836" d="M1150.877,131.318c0.652,1.393,2.303,1.997,3.674,1.359l0,0c1.396-0.648,1.992-2.294,1.348-3.678
							l-5.222-11.297c-0.653-1.388-2.303-1.992-3.687-1.359l0,0c-1.38,0.658-1.988,2.307-1.348,3.691L1150.877,131.318z"/>
					</g>
				</g>
			</g>
		</g>
	</g>
	<g>
		<g>
			<g>
				<g>
					<g>
						<path fill="#66E836" d="M1122.41,250.993c0.66,1.384,2.306,1.984,3.686,1.339l0,0c1.389-0.648,1.988-2.29,1.344-3.69
							l-5.23-11.275c-0.645-1.388-2.294-1.992-3.682-1.343l0,0c-1.393,0.633-1.984,2.285-1.34,3.67L1122.41,250.993z"/>
					</g>
				</g>
			</g>
		</g>
	</g>
	<g>
		<g>
			<g>
				<g>
					<g>
						<path fill="#66E836" d="M1150.877,194.3c0.652,1.38,2.303,1.979,3.674,1.343l0,0c1.396-0.648,1.992-2.29,1.355-3.686
							l-5.229-11.28c-0.653-1.395-2.303-2.004-3.687-1.347l0,0c-1.38,0.641-1.988,2.29-1.348,3.662L1150.877,194.3z"/>
					</g>
				</g>
			</g>
		</g>
	</g>
	<g>
		<g>
			<g>
				<g>
					<g>
						<path fill="#66E836" d="M1247.861,105.787c0.645,1.375,2.303,1.983,3.682,1.343l0,0c1.396-0.649,1.984-2.29,1.348-3.683
							l-5.238-11.288c-0.641-1.38-2.29-1.992-3.678-1.352l0,0c-1.372,0.649-1.988,2.291-1.34,3.675L1247.861,105.787z"/>
					</g>
				</g>
			</g>
		</g>
	</g>
	<g>
		<g>
			<g>
				<g>
					<g>
						<path fill="#66E836" d="M1218.94,122.904c0.633,1.389,2.294,2.001,3.675,1.352l0,0c1.379-0.637,1.996-2.286,1.343-3.678
							l-5.238-11.289c-0.646-1.388-2.286-1.988-3.67-1.351l0,0c-1.392,0.649-1.997,2.302-1.352,3.674L1218.94,122.904z"/>
					</g>
				</g>
			</g>
		</g>
	</g>
	<g>
		<g>
			<g>
				<g>
					<g>
						<path fill="#66E836" d="M1262.864,199.023c0.637,1.384,2.29,1.992,3.67,1.359l0,0c1.388-0.662,1.992-2.291,1.347-3.686
							l-5.241-11.28c-0.646-1.4-2.286-2-3.671-1.352l0,0c-1.387,0.642-1.987,2.287-1.342,3.67L1262.864,199.023z"/>
					</g>
				</g>
			</g>
		</g>
	</g>
	<g>
		<g>
			<g>
				<g>
					<g>
						<path fill="#66E836" d="M1219.006,281.502c0.653,1.38,2.286,1.976,3.687,1.331l0,0c1.388-0.646,1.988-2.278,1.343-3.675
							l-5.233-11.275c-0.646-1.384-2.303-2-3.683-1.355l0,0c-1.396,0.637-1.988,2.286-1.344,3.679L1219.006,281.502z"/>
					</g>
				</g>
			</g>
		</g>
	</g>
	<g>
		<g>
			<g>
				<g>
					<g>
						<path fill="#9E0820" d="M1291.221,145.077c0.658,1.376,2.303,1.951,3.699,1.298l0,0c1.376-0.661,1.951-2.307,1.299-3.703
							l-5.385-11.215c-0.649-1.367-2.315-1.963-3.691-1.298l0,0c-1.384,0.657-1.972,2.303-1.298,3.687L1291.221,145.077z"/>
					</g>
				</g>
			</g>
		</g>
	</g>
	<g>
		<g>
			<g>
				<g>
					<g>
						<path fill="#9E0820" d="M1285.759,238.415c0.665,1.384,2.323,1.968,3.703,1.294l0,0c1.372-0.645,1.951-2.307,1.298-3.686
							l-5.381-11.215c-0.661-1.393-2.303-1.96-3.694-1.307l0,0c-1.376,0.657-1.952,2.311-1.298,3.687L1285.759,238.415z"/>
					</g>
				</g>
			</g>
		</g>
	</g>
	<g>
		<g>
			<g>
				<g>
					<g>
						<path fill="#9E0820" d="M1112.668,153.458c0.674,1.376,2.319,1.968,3.699,1.307l0,0c1.376-0.665,1.96-2.319,1.299-3.694
							l-5.377-11.227c-0.657-1.376-2.311-1.964-3.683-1.311l0,0c-1.388,0.67-1.972,2.323-1.298,3.699L1112.668,153.458z"/>
					</g>
				</g>
			</g>
		</g>
	</g>
	<g>
		<g>
			<g>
				<g>
					<g>
						<path fill="#9E0820" d="M1323.257,177.826c0.665,1.377,2.311,1.956,3.69,1.295l0,0c1.371-0.653,1.959-2.311,1.307-3.686
							l-5.389-11.228c-0.654-1.375-2.303-1.972-3.683-1.294l0,0c-1.38,0.653-1.972,2.303-1.303,3.694L1323.257,177.826z"/>
					</g>
				</g>
			</g>
		</g>
	</g>
	<g>
		<g>
			<g>
				<g>
					<g>
						<path fill="#9E0820" d="M1118.582,192.46c0.66,1.375,2.326,1.968,3.698,1.302l0,0c1.38-0.657,1.96-2.307,1.298-3.69
							l-5.373-11.227c-0.66-1.372-2.318-1.96-3.698-1.307l0,0c-1.38,0.674-1.96,2.331-1.29,3.703L1118.582,192.46z"/>
					</g>
				</g>
			</g>
		</g>
	</g>
	<g>
		<g>
			<g>
				<g>
					<g>
						<path fill="#9E0820" d="M1180.752,114.527c0.658,1.376,2.319,1.955,3.699,1.307l0,0c1.38-0.67,1.951-2.311,1.299-3.707
							l-5.381-11.219c-0.662-1.376-2.303-1.951-3.688-1.299l0,0c-1.383,0.662-1.979,2.315-1.306,3.699L1180.752,114.527z"/>
					</g>
				</g>
			</g>
		</g>
	</g>
	<g>
		<g>
			<g>
				<g>
					<g>
						<path fill="#9E0820" d="M1224.48,80.581c0.653,1.376,2.307,1.952,3.703,1.299l0,0c1.371-0.666,1.959-2.327,1.285-3.699
							l-5.372-11.219c-0.665-1.384-2.323-1.972-3.694-1.307l0,0c-1.381,0.657-1.969,2.312-1.299,3.679L1224.48,80.581z"/>
					</g>
				</g>
			</g>
		</g>
	</g>
	<g>
		<g>
			<g>
				<g>
					<g>
						<path fill="#9E0820" d="M1150.967,238.415c0.661,1.384,2.311,1.968,3.703,1.294l0,0c1.375-0.645,1.947-2.307,1.293-3.686
							l-5.38-11.215c-0.661-1.393-2.319-1.96-3.69-1.307l0,0c-1.385,0.657-1.96,2.311-1.299,3.687L1150.967,238.415z"/>
					</g>
				</g>
			</g>
		</g>
	</g>
	<g>
		<g>
			<g>
				<g>
					<g>
						<path fill="#F9DC87" d="M1299.305,191.344c-0.796,1.314-0.384,3.018,0.923,3.813l0,0c1.306,0.796,2.992,0.384,3.801-0.927
							l6.483-10.619c0.813-1.307,0.379-3.013-0.919-3.801l0,0c-1.303-0.8-3.009-0.384-3.81,0.91L1299.305,191.344z"/>
					</g>
				</g>
			</g>
		</g>
	</g>
	<g>
		<g>
			<g>
				<g>
					<g>
						<path fill="#F9DC87" d="M1166.227,235.17c-0.809,1.314-0.383,3.009,0.906,3.809l0,0c1.311,0.809,3.01,0.393,3.813-0.914
							l6.491-10.623c0.788-1.294,0.38-3.005-0.922-3.813l0,0c-1.315-0.801-3.014-0.38-3.814,0.935L1166.227,235.17z"/>
					</g>
				</g>
			</g>
		</g>
	</g>
	<g>
		<g>
			<g>
				<g>
					<g>
						<path fill="#F9DC87" d="M1263.162,158.598c-0.809,1.299-0.384,3.014,0.914,3.806l0,0c1.314,0.8,3.014,0.388,3.805-0.915
							l6.484-10.635c0.799-1.294,0.383-3.005-0.915-3.809l0,0c-1.314-0.792-3.013-0.384-3.806,0.935L1263.162,158.598z"/>
					</g>
				</g>
			</g>
		</g>
	</g>
	<g>
		<g>
			<g>
				<g>
					<g>
						<path fill="#F9DC87" d="M1279.41,111.584c-0.8,1.307-0.383,3.005,0.932,3.801l0,0c1.298,0.809,3.008,0.388,3.788-0.899
							l6.499-10.635c0.793-1.311,0.367-3.009-0.926-3.813l0,0c-1.303-0.797-3.014-0.385-3.806,0.918L1279.41,111.584z"/>
					</g>
				</g>
			</g>
		</g>
	</g>
	<g>
		<g>
			<g>
				<g>
					<g>
						<path fill="#F9DC87" d="M1120.943,170.025c-1.453,0.424-2.294,1.959-1.857,3.438l0,0c0.434,1.445,1.969,2.294,3.441,1.85
							l11.922-3.536c1.478-0.437,2.311-1.988,1.877-3.445l0,0c-0.432-1.47-1.992-2.295-3.441-1.866L1120.943,170.025z"/>
					</g>
				</g>
			</g>
		</g>
	</g>
	<g>
		<g>
			<g>
				<g>
					<g>
						<path fill="#F9DC87" d="M1173.813,256.256c-1.479,0.429-2.303,1.98-1.878,3.441l0,0c0.44,1.462,1.983,2.303,3.441,1.87
							l11.941-3.552c1.466-0.429,2.302-1.984,1.857-3.441l0,0c-0.437-1.466-1.972-2.299-3.441-1.874L1173.813,256.256z"/>
					</g>
				</g>
			</g>
		</g>
	</g>
	<g>
		<g>
			<g>
				<g>
					<g>
						<path fill="#F9DC87" d="M1120.943,114.928c-1.453,0.433-2.294,1.963-1.857,3.434l0,0c0.434,1.465,1.969,2.302,3.441,1.865
							l11.922-3.539c1.478-0.449,2.311-1.98,1.877-3.454l0,0c-0.432-1.458-1.992-2.29-3.441-1.862L1120.943,114.928z"/>
					</g>
				</g>
			</g>
		</g>
	</g>
	<g>
		<g>
			<g>
				<g>
					<g>
						<path fill="#F9DC87" d="M1241.01,129.008c-1.469,0.438-2.302,1.973-1.873,3.441l0,0c0.437,1.458,1.98,2.287,3.449,1.857
							l11.918-3.531c1.481-0.457,2.326-1.992,1.873-3.453l0,0c-0.433-1.462-1.968-2.295-3.438-1.87L1241.01,129.008z"/>
					</g>
				</g>
			</g>
		</g>
	</g>
	<g>
		<g>
			<g>
				<g>
					<g>
						<path fill="#F9DC87" d="M1255.993,269.259c-1.47,0.44-2.302,1.983-1.854,3.445l0,0c0.433,1.47,1.968,2.31,3.442,1.87
							l11.924-3.552c1.471-0.433,2.303-1.976,1.85-3.441l0,0c-0.428-1.462-1.963-2.303-3.434-1.874L1255.993,269.259z"/>
					</g>
				</g>
			</g>
		</g>
	</g>
	<g>
		<g>
			<g>
				<g>
					<g>
						<path fill="#F9DC87" d="M1163.483,77.634c-0.8,1.294-0.384,3.009,0.923,3.797l0,0c1.303,0.804,3.009,0.396,3.797-0.915
							l6.491-10.631c0.8-1.294,0.392-3.004-0.915-3.792l0,0c-1.307-0.796-3.013-0.396-3.813,0.918L1163.483,77.634z"/>
					</g>
				</g>
			</g>
		</g>
	</g>
	<g>
		<g>
			<g>
				<g>
					<g>
						<path fill="#F9DC87" d="M1205.885,94.764c-0.801,1.29-0.4,3.005,0.91,3.801l0,0c1.318,0.788,3.013,0.393,3.809-0.922
							l6.483-10.619c0.8-1.303,0.384-3.013-0.923-3.801l0,0c-1.307-0.809-3.013-0.38-3.797,0.906L1205.885,94.764z"/>
					</g>
				</g>
			</g>
		</g>
	</g>
	<g>
		<g>
			<g>
				<g>
					<g>
						<path fill="#F9DC87" d="M1242.154,248.038c-0.801,1.314-0.381,3.017,0.922,3.813l0,0c1.314,0.8,3.014,0.384,3.801-0.935
							l6.487-10.61c0.808-1.298,0.384-3.001-0.915-3.81l0,0c-1.298-0.796-3.012-0.383-3.797,0.928L1242.154,248.038z"/>
					</g>
				</g>
			</g>
		</g>
	</g>
	<g>
		<g>
			<g>
				<g>
					<g>
						<path fill="none" d="M1195.139,143.591c5.969,0,15.988-0.902,26.365,2.05c11.774,3.352,22.156,8.087,22.156,37.154
							c0,32.064-30.346,33.6-41.462,33.693c-17.951-2.988-31.66-18.58-31.66-37.408
							C1170.538,162.848,1180.77,148.992,1195.139,143.591z"/>
					</g>
				</g>
			</g>
		</g>
	</g>
</g>
<path opacity="0.2" fill="#8C877C" d="M327,889.376c-15.142-32.872-70.659-164.645-70.659-164.645
	c-15.139-34.128-17.004-42.832-20.951-56.487c-4.648-16.115-13.394-46.739-17.026-57.867
	c-3.647-11.081-76.48-199.511-83.177-215.619c-6.692-16.074-13.947-9.621-17.909-3.531c-3.976,6.076-5.461,28.02-5.461,28.02
	c-0.027,19.306,7.164,52.58,23.41,99.439c16.16,46.8,38.673,101.273,46.629,116.813c7.962,15.472,24.237,45.056,29.376,58.148
	c3.194,8.138,5.567,16.07,12.159,37.977c4.105,13.635,9.843,32.685,18.439,60.574c22.453,72.728,37.631,105.97,37.631,105.97
	C297,940,344,926.281,327,889.376z"/>
<path fill="#E8E1D4" d="M333,882.376c-15.142-32.872-70.659-164.645-70.659-164.645c-15.139-34.128-17.004-42.832-20.951-56.487
	c-4.648-16.115-13.394-46.739-17.026-57.867c-3.647-11.081-76.48-199.511-83.177-215.619c-6.692-16.074-13.947-9.621-17.909-3.531
	c-3.976,6.076-5.461,28.02-5.461,28.02c-0.027,19.306,7.164,52.58,23.41,99.439c16.16,46.8,38.673,101.273,46.629,116.813
	c7.962,15.472,24.237,45.056,29.376,58.148c3.194,8.138,5.567,16.07,12.159,37.977c4.105,13.635,9.843,32.685,18.439,60.574
	c22.453,72.728,37.631,105.97,37.631,105.97C303,933,350,919.281,333,882.376z"/>
<path fill="#E0792D" d="M1293.576,353.553c1.806,0.804,3.555,1.733,5.289,2.645l4.21-15.523c-1.351-0.459-2.701-0.889-4.099-1.249
	c-1.762-0.456-3.52-0.806-5.295-1.103c-13.795-2.297-27.679,0.423-40.084,7.019c0.054,0.004,0.106,0.01,0.16,0.014
	c-18.723,10.168-33.973,29.213-40.287,53.427l-64.205,245.821l18.41,26.586l25.493,36.823L1293.576,353.553z"/>
<path fill="#F99D58" d="M1300.067,339.69l-4.036,14.826c-2.817-1.49,0.022,0.014-3.052-1.177l-100.568,353.571l7.789,12.642
	l-0.018,0.066l48.503,70.036l2.455,3.53l92.081-352.537l1.834-7.012C1355.729,392.762,1337.007,352.241,1300.067,339.69z"/>
<polygon fill="#E0792D" points="1186.383,718.242 1159.9,679.965 1142.979,655.532 1126.739,717.701 1144.853,743.036 
	1169.98,778.197 "/>
<polygon fill="#E0792D" points="1168.383,789.242 1141.9,750.965 1124.979,726.532 1108.739,788.701 1126.853,814.036 
	1151.98,849.197 "/>
<g>
	<polygon fill="#F99D58" points="1240.451,796.317 1194.678,730.212 1186.383,718.242 1169.98,778.197 1178.443,790.029 
		1225.806,856.278 1230.279,862.548 1245.62,803.788 	"/>
	<polygon fill="#F99D58" points="1176.678,801.212 1176.604,801.481 1168.668,790.029 1152.266,849.984 1160.729,861.816 
		1160.805,861.535 1207.806,927.278 1212.279,933.548 1227.62,874.788 1222.451,867.317 	"/>
</g>
<path fill="#EFDDAB" d="M1301.396,530.886c-0.003,0.085-0.002,0.171-0.005,0.255c5.573-34.218,0.228-70.841-23.262-84.939
	c-35.868-21.524-42.184-42.233-44.074-48.549c-0.357,2.701-0.498,5.372-0.45,8.01c-0.062-2.723,0.079-5.482,0.448-8.273
	c-0.254-0.885-0.45-1.493-0.606-1.775c-18.054,37.44-3.831,65.343,30.672,84.36c30.392,16.734,35.466,44.294,36.977,52.635
	C1301.208,532.025,1301.295,531.451,1301.396,530.886z"/>
<path fill="#EFDDAB" d="M1248.279,736.391c0.094-0.57,0.191-1.148,0.274-1.715c0.07-2.809,0.038-5.62-0.091-8.414
	c3.559-31.788-2.666-64.004-24.341-77.004c-31.546-18.939-40.23-37.231-43.151-45.664c0.069-0.805,0.148-1.609,0.255-2.419
	c-0.268-0.879-0.447-1.484-0.601-1.773c-18.055,37.43-3.842,65.345,30.673,84.36c26.286,14.473,33.634,37.04,36.117,48.266
	c-0.006,0.72-0.016,1.439-0.033,2.159c0.073-0.451,0.138-0.904,0.207-1.356C1247.886,734.234,1248.107,735.442,1248.279,736.391z"/>
<path fill="#EFDDAB" d="M1270.229,629.526c0.02-0.759,0.029-1.515,0.034-2.273c-0.004,0.841-0.014,1.683-0.035,2.523
	c5.565-34.205,0.22-70.829-23.27-84.927c-35.866-21.524-42.18-42.24-44.07-48.556c-0.365,2.76-0.509,5.489-0.451,8.184
	c-0.074-2.779,0.063-5.595,0.438-8.442c-0.247-0.883-0.433-1.492-0.606-1.776c-18.042,37.438-3.826,65.337,30.683,84.357
	c30.395,16.744,35.462,44.3,36.983,52.64C1270.037,630.673,1270.13,630.102,1270.229,629.526z"/>
<g opacity="0.4">
	<g>
		<g>
			<path fill="#FCFCF7" d="M1262.058,640.295c-30.946,2.583-78.621-39.441-89.85-68.613c-22.694-65.886,56.147-18.938,69.895-64.459
				c14.868-47.27-69.953-80.732,20.451-95.432c19.009-2.854,90.247-11.823,97.944-34.584
				c-14.186,30.474-28.996,38.419-59.951,48.543c-53.283,18.279-30.53,25.161-17.765,67.599
				c13.424,45.32-19.502,46.835-37.657,79.743C1232.949,592.524,1227.37,640.694,1262.058,640.295"/>
		</g>
	</g>
</g>
</svg>
